<?xml version="1.0" encoding="UTF-8" standalone="no"?>
<svg width="249px" height="68px" viewBox="0 0 249 68" version="1.1" xmlns="http://www.w3.org/2000/svg" xmlns:xlink="http://www.w3.org/1999/xlink">
    <!-- Generator: Sketch 39.1 (31720) - http://www.bohemiancoding.com/sketch -->
    <title>Group 18</title>
    <desc>Created with Sketch.</desc>
    <defs>
        <rect id="path-1" x="0" y="0" width="20" height="17.3913043" rx="2.04999995"></rect>
        <mask id="mask-2" maskContentUnits="userSpaceOnUse" maskUnits="objectBoundingBox" x="-2" y="-2" width="24" height="21.3913043">
            <rect x="-2" y="-2" width="24" height="21.3913043" fill="white"></rect>
            <use xlink:href="#path-1" fill="black"></use>
        </mask>
        <path d="M8.84692779,12.1718286 C8.37918249,12.4641694 8,12.2544598 8,11.7052164 L8,6.19710057 C8,5.64705695 8.37532687,5.43573778 8.84692779,5.73048835 L13.1530722,8.42182861 C13.6208175,8.71416943 13.6246731,9.18573778 13.1530722,9.48048835 L8.84692779,12.1718286 Z" id="path-3"></path>
        <mask id="mask-4" maskContentUnits="userSpaceOnUse" maskUnits="objectBoundingBox" x="0" y="0" width="5.50532853" height="6.30382418" fill="white">
            <use xlink:href="#path-3"></use>
        </mask>
        <rect id="path-5" x="0" y="0" width="20" height="17.3913043" rx="2.04999995"></rect>
        <mask id="mask-6" maskContentUnits="userSpaceOnUse" maskUnits="objectBoundingBox" x="-2" y="-2" width="24" height="21.3913043">
            <rect x="-2" y="-2" width="24" height="21.3913043" fill="white"></rect>
            <use xlink:href="#path-5" fill="black"></use>
        </mask>
    </defs>
    <g id="Page-1" stroke="none" stroke-width="1" fill="none" fill-rule="evenodd">
        <g id="Artboard-5-Copy-49" transform="translate(-438.000000, -3179.000000)">
            <g id="Group-13" transform="translate(121.000000, 1872.000000)">
                <g id="Group-22" transform="translate(36.000000, 1180.000000)">
                    <g id="Group-18" transform="translate(282.000000, 127.000000)">
                        <g id="Group-15" transform="translate(2.000000, 0.000000)" fill="#F8A000">
                            <g id="Group-14">
                                <path d="M156.848758,25.9172622 C155.435494,25.5651986 154.175878,26.1961697 153.33157,27.2752218 C153.212911,27.4261062 152.978634,27.4291543 152.859975,27.279794 C151.951774,26.1245377 150.558286,25.4844221 149.073521,25.9980387 C146.72163,26.8103759 145.900141,30.4133123 149.137415,33.4279521 C152.561805,36.6193856 153.110985,37.0507016 156.943077,33.5300657 C160.400936,30.3523489 159.448617,26.5649982 156.848758,25.9172622 L156.848758,25.9172622 Z M182,10.2664355 L182,31.4816958 L162.223423,31.4816958 L162.223423,28.4335262 L178.95745,28.4335262 L178.95745,13.1926783 L169.829799,13.1926783 L169.829799,4.04816958 L154.617048,4.04816958 L154.617048,22.337187 L151.574497,22.337187 L151.574497,1 L173.170519,1 L182,10.2664355 Z" id="file_love_favorite-[#1580]-copy"></path>
                                <path d="M210.770224,14.7758621 C210.057659,14.7758621 209.5,15.3344828 209.5,16.0482759 L209.5,21.0137931 C209.5,21.7275862 210.057659,22.2862069 210.770224,22.2862069 L213.093804,22.2862069 C213.434596,23.6206897 213.961274,24.8931034 214.673838,26.0724138 L213.062823,27.6862069 C212.567126,28.1827586 212.567126,28.9896552 213.062823,29.4862069 L216.563683,32.9931034 C217.05938,33.4896552 217.864888,33.4896552 218.360585,32.9931034 L220.002582,31.3482759 C221.179862,32.0310345 222.450086,32.5586207 223.782272,32.9 L223.782272,35.2275862 C223.782272,35.9413793 224.339931,36.5 225.052496,36.5 L230.009466,36.5 C230.722031,36.5 231.27969,35.9413793 231.27969,35.2275862 L231.27969,32.8689655 C232.611876,32.5275862 233.851119,32 235.028399,31.3172414 L236.701377,32.9931034 C237.197074,33.4896552 238.002582,33.4896552 238.498279,32.9931034 L241.999139,29.4862069 C242.494836,28.9896552 242.494836,28.1827586 241.999139,27.6862069 L240.326162,26.0103448 C241.007745,24.8310345 241.534423,23.5896552 241.875215,22.2551724 L244.229776,22.2551724 C244.942341,22.2551724 245.5,21.6965517 245.5,20.9827586 L245.5,16.0172414 C245.5,15.3034483 244.942341,14.7448276 244.229776,14.7448276 L241.875215,14.7448276 C241.534423,13.4103448 241.007745,12.1689655 240.326162,10.9896552 L241.999139,9.3137931 C242.494836,8.81724138 242.494836,8.01034483 241.999139,7.5137931 L238.467298,4.03793103 C237.971601,3.54137931 237.166093,3.54137931 236.670396,4.03793103 L235.028399,5.68275862 C233.851119,5 232.580895,4.47241379 231.248709,4.1 L231.248709,1.77241379 C231.248709,1.05862069 230.69105,0.5 229.978485,0.5 L225.021515,0.5 C224.30895,0.5 223.751291,1.05862069 223.751291,1.77241379 L223.751291,4.1 C222.419105,4.44137931 221.148881,4.96896552 219.971601,5.65172414 L218.329604,4.00689655 C217.833907,3.51034483 217.028399,3.51034483 216.532702,4.00689655 L213.031842,7.54482759 C212.536145,8.04137931 212.536145,8.84827586 213.031842,9.34482759 L214.642857,10.9586207 C213.930293,12.137931 213.403614,13.4103448 213.062823,14.7758621 L210.770224,14.7758621 L210.770224,14.7758621 Z M215.355422,16.2655172 C215.665232,14.5275862 216.346816,12.9448276 217.307229,11.5172414 C217.648021,11.0206897 217.586059,10.337931 217.152324,9.90344828 L215.727194,8.44482759 L217.431153,6.73793103 L218.887263,8.19655172 C219.320998,8.63103448 220.002582,8.69310345 220.498279,8.35172414 C221.923408,7.35862069 223.534423,6.70689655 225.238382,6.39655172 C225.827022,6.27241379 226.291738,5.77586207 226.291738,5.15517241 L226.291738,3.07586207 L228.708262,3.07586207 L228.708262,5.15517241 C228.708262,5.77586207 229.141997,6.30344828 229.730637,6.39655172 C231.434596,6.70689655 233.01463,7.38965517 234.439759,8.35172414 C234.935456,8.69310345 235.61704,8.63103448 236.050775,8.19655172 L237.537866,6.70689655 L239.241824,8.4137931 L237.754733,9.90344828 C237.320998,10.337931 237.259036,11.0206897 237.599828,11.5172414 C238.560241,12.9448276 239.210843,14.5275862 239.551635,16.2344828 C239.675559,16.8241379 240.202238,17.2896552 240.790878,17.2896552 L242.89759,17.2896552 L242.89759,19.7103448 L240.790878,19.7103448 C240.171256,19.7103448 239.644578,20.1448276 239.551635,20.7344828 C239.241824,22.4413793 238.591222,24.0241379 237.599828,25.4517241 C237.259036,25.9482759 237.320998,26.6310345 237.754733,27.0655172 L239.241824,28.5551724 L237.537866,30.262069 L236.050775,28.7724138 C235.61704,28.337931 234.935456,28.2758621 234.439759,28.6172414 C233.01463,29.6103448 231.434596,30.262069 229.730637,30.5724138 C229.141997,30.6965517 228.708262,31.2241379 228.708262,31.8137931 L228.708262,33.8931034 L226.291738,33.8931034 L226.291738,31.8137931 C226.291738,31.1931034 225.858003,30.6655172 225.238382,30.5724138 C223.503442,30.262069 221.923408,29.6103448 220.498279,28.6172414 C220.002582,28.2758621 219.320998,28.337931 218.887263,28.7724138 L217.431153,30.2310345 L215.727194,28.6172414 L217.183305,27.1586207 C217.61704,26.7241379 217.679002,26.0413793 217.33821,25.5448276 C216.346816,24.1172414 215.696213,22.5034483 215.355422,20.7965517 C215.231497,20.2068966 214.7358,19.7724138 214.116179,19.7724138 L212.071429,19.7724138 L212.071429,17.3517241 L214.116179,17.3517241 C214.704819,17.3206897 215.231497,16.8862069 215.355422,16.2655172 L215.355422,16.2655172 Z M227.469019,27.437931 C232.271084,27.437931 236.174699,23.5275862 236.174699,18.7172414 C236.174699,13.9068966 232.271084,9.99655172 227.469019,9.99655172 C222.666954,9.99655172 218.763339,13.9068966 218.763339,18.7172414 C218.763339,23.5275862 222.666954,27.437931 227.469019,27.437931 L227.469019,27.437931 Z M227.469019,12.5413793 C230.876936,12.5413793 233.634251,15.3034483 233.634251,18.7172414 C233.634251,22.1310345 230.876936,24.8931034 227.469019,24.8931034 C224.061102,24.8931034 221.303787,22.1310345 221.303787,18.7172414 C221.303787,15.3034483 224.061102,12.5413793 227.469019,12.5413793 L227.469019,12.5413793 Z" id="settings-1"></path>
                                <path d="M209,19.3324907 L209,28.3543948 C209,29.7785668 207.8365,30.9333705 206.4,30.9333705 L188.4691,30.9333705 C187.8906,30.9333705 187.6007,31.6267683 188.0102,32.032754 L190.1968,34.2005887 C190.7038,34.7032376 190.7038,35.5190755 190.1968,36.0230133 C189.6885,36.5256622 188.8656,36.5256622 188.3573,36.0230133 C186.5763,34.2560089 185.2581,32.9504105 183.7618,31.4656629 C182.7465,30.4590761 182.7465,28.8274003 183.7618,27.8208136 L188.3573,23.2634632 C188.8656,22.7608143 189.6885,22.7608143 190.1968,23.2634632 C190.7038,23.767401 190.7038,24.5832389 190.1968,25.0871767 L188.0102,27.2550113 C187.6007,27.660997 187.8906,28.3556836 188.4691,28.3556836 L205.1,28.3556836 C205.8176,28.3556836 206.4,27.7769929 206.4,27.0655514 L206.4,19.3324907 C206.4,18.6210491 206.9824,18.0436473 207.7,18.0436473 C208.4176,18.0436473 209,18.6210491 209,19.3324907 M183,17.0679928 L183,8.04608867 C183,6.62320551 184.1635,5.15650167 185.6,5.15650167 L203.5309,5.15650167 C204.1094,5.15650167 204.3993,4.61776511 203.9898,4.21177942 L201.8032,2.20118365 C201.2962,1.69724586 201.2962,0.881407965 201.8032,0.377470178 C202.3115,-0.125178765 203.1344,-0.126467608 203.6427,0.377470178 C204.3603,1.08891176 207.5271,4.22853439 208.2382,4.92966522 C209.2535,5.93625195 209.2535,7.56406122 208.2382,8.57064795 L203.6427,13.1176876 C203.1344,13.6203366 202.3115,13.6010039 201.8032,13.098355 C201.2962,12.5944172 201.2962,11.739914 201.8032,11.2359762 L203.9898,8.99081091 C204.3993,8.58482523 204.1094,7.73418855 203.5309,7.73418855 L186.9,7.73418855 C186.1824,7.73418855 185.6,8.62349053 185.6,9.33493211 L185.6,17.0679928 C185.6,17.7807232 185.0176,18.3568362 184.3,18.3568362 C183.5824,18.3568362 183,17.7807232 183,17.0679928" id="arrow_repeat-[#242]"></path>
                                <path d="M78.3107506,21.9846575 L69.8232038,21.2213699 L69.8094445,11.5479452 C69.8094445,10.8709589 69.2335178,9.63013699 67.8359621,9.63013699 C66.7509399,9.63013699 65.8624797,10.4893151 65.8624797,11.5479452 L65.8624797,27.839726 L64.2251183,25.5536986 C63.5312545,24.5909589 62.1199394,24.470137 61.2668603,25.3024658 C60.6044464,25.9506849 60.5120623,26.9690411 61.0467109,27.7208219 L65.2904843,35.4112329 C65.6580552,35.9309589 66.2634661,36 66.9101551,36 L76.4139274,36 C78.2891288,36 79.9029028,34.9490411 80.2704737,33.1578082 L80.9230595,26.2556164 C81.3122523,24.3589041 80.1918489,22.5964384 78.3107506,21.9846575 M59.9656199,15.3835616 C58.8805977,15.3835616 58,14.5263014 58,13.4657534 L58,11.0684932 C58,-2.35616438 77.6561992,-2.35616438 77.6561992,11.0684932 L77.6561992,13.4657534 C77.6561992,14.5263014 76.7756015,15.3835616 75.6905793,15.3835616 C74.6055571,15.3835616 73.7249594,14.5263014 73.7249594,13.4657534 L73.7249594,11.0684932 C73.7249594,3.39726027 61.9312398,3.39726027 61.9312398,11.0684932 L61.9312398,13.4657534 C61.9312398,14.5263014 61.0506421,15.3835616 59.9656199,15.3835616" id="tap_click_force_touch-[#1383]"></path>
                                <path d="M55.9063943,22.0707935 C55.1652169,24.7510148 53.6099818,27.0994364 51.5193325,28.8409091 L51.5555556,28.8409091 L50.0925468,34.4553978 C49.8689302,35.3135563 48.9344633,36 48.0023895,36 L37.3864994,36 C36.4510596,36 35.5186302,35.3084581 35.296342,34.4553978 L33.8333333,28.8409091 L33.8695564,28.8409091 C30.8916159,26.3603391 29,22.6483049 29,18.5 C29,14.3516951 30.8916159,10.6396609 33.8695564,8.15909091 L33.8333333,8.15909091 L35.296342,2.54460216 C35.5186302,1.69154194 36.4510596,1 37.3864994,1 L48.0023895,1 C48.9344633,1 49.8689302,1.68644373 50.0925468,2.54460216 L51.5555556,8.15909091 L51.5193325,8.15909091 C53.9529662,10.1862633 55.6610989,13.035868 56.2042188,16.2739043 C56.3781193,16.1718074 56.5784434,16.1136364 56.7916667,16.1136364 C57.4590107,16.1136364 58,16.6834558 58,17.3863636 L58,21.2045455 C58,21.9074533 57.4590107,22.4772727 56.7916667,22.4772727 C56.4420068,22.4772727 56.1270353,22.3208394 55.9063943,22.0707935 Z M42.6944444,28.8409091 C48.4780931,28.8409091 53.1666667,24.2111264 53.1666667,18.5 C53.1666667,12.7888736 48.4780931,8.15909091 42.6944444,8.15909091 C36.9107958,8.15909091 32.2222222,12.7888736 32.2222222,18.5 C32.2222222,24.2111264 36.9107958,28.8409091 42.6944444,28.8409091 Z M42.9666045,18.1347479 L45.8901096,15.2479012 C46.3619932,14.7819347 47.1270675,14.7819348 47.598951,15.2479013 C48.0708345,15.7138678 48.0708345,16.4693487 47.598951,16.9353152 L43.9516429,20.5368888 C43.5227799,20.9603742 42.8517482,20.9989823 42.3787294,20.6527133 L36.7560038,16.6868411 C36.2129636,16.303819 36.0871862,15.5586172 36.4750721,15.0223862 C36.8629579,14.4861553 37.6176226,14.361955 38.1606628,14.7449771 L42.9666045,18.1347479 Z" id="Watch-fill"></path>
                                <g id="Group" transform="translate(0.000000, 1.000000)">
                                    <path d="M7.44712436,25.9330408 C5.63499379,23.9053073 5.84142101,15.3861058 5.91329086,14.7904408 C5.95820951,14.4197539 6.23564825,14.1081753 6.63727385,13.9766708 C6.63727385,13.9766708 9.08326425,13.6603626 10.6316819,13.1554687 C11.5264867,12.8636989 13.9669413,11.5866797 13.9669413,11.5866797 C14.2311687,11.5000792 14.2038364,11.4954972 14.4664784,11.5866797 C14.4664784,11.5866797 16.7025515,12.7936205 17.7955645,13.1554687 C19.1034484,13.5884513 21.669169,13.9711724 21.669169,13.9711724 C22.07238,14.1104663 22.3434772,14.4307508 22.3762414,14.8064779 C22.4248593,15.3668612 22.4872879,24.0658606 20.6429118,25.9330408 C20.3868336,26.1922852 15.0106394,30.538874 13.9669413,30.538874 C12.8270645,30.538874 7.66749351,26.1796289 7.44712436,25.9330408 Z" id="Fill-1"></path>
                                    <path d="M19.5975097,0 C20.396354,0 21.5003515,0.446855528 22.0703351,1.00491183 L26.9736102,5.80558209 C27.5404696,6.36057957 28,7.45132528 28,8.24513214 L28,32.0797968 C28,33.6704891 26.7056578,34.96 25.1220437,34.96 L2.87795634,34.96 C1.28850494,34.96 0,33.6671503 0,32.0780911 L0,26.4476042 L0,2.8807036 C0,1.28973493 1.28471494,0 2.88194638,0 L19.5975097,0 Z M16.8,3.10755556 L16.8,7.80328582 C16.8,9.39892407 18.0930501,10.6924444 19.6827802,10.6924444 L24.847998,10.6924444 L24.8,31.8524444 L3.2,31.8524444 C3.2,31.8524444 3.2,34.9852261 3.2,24.3593359 L3.2,3.10755556 L16.8,3.10755556 Z M20,3.10755556 L24.8,7.76888889 L20,7.76888889 L20,3.10755556 Z" id="Page"></path>
                                </g>
                                <path d="M83.6190476,12.654268 C83.6190476,8.24482031 87.0770704,4.68029014 91.3304029,4.68029014 C93.8079685,4.68029014 96.0886557,5.89507421 97.5363771,7.92015955 L99,9.96748795 L100.463623,7.92015955 C101.911344,5.89507421 104.192032,4.68029014 106.669597,4.68029014 C110.92293,4.68029014 114.380952,8.24482031 114.380952,12.654268 C114.380952,14.6195775 113.693238,16.4688366 112.465797,17.9137753 L112.543548,17.8279105 C112.49564,17.8775605 112.49564,17.8775605 112.279769,18.1012398 C111.991892,18.3995005 111.991892,18.3995005 111.583953,18.8220554 C110.864034,19.5677169 110.143778,20.3133696 109.471113,21.0092542 C109.466957,21.0135532 109.466957,21.0135532 109.462801,21.0178523 C108.599881,21.9105531 107.880287,22.654088 107.351987,23.1986598 C105.723199,24.8776148 105.723199,24.8776148 103.845398,26.8132527 C101.740226,28.9832642 101.740226,28.9832642 99.9859155,30.7916072 C98.5824674,32.2382815 98.5824674,32.2382815 98.2316054,32.5999501 C98.5965608,32.2237541 99.1980164,32.22949 99.5490056,32.5976394 L85.3822364,17.738245 L85.4677156,17.8344671 C84.2813033,16.4004481 83.6190476,14.5831082 83.6190476,12.654268 L83.6190476,12.654268 Z M80,12.654268 C80,15.4568381 80.9673857,18.1115056 82.6984137,20.2038027 L82.7838929,20.3000248 L96.9506622,35.1594192 C98.0072149,36.2676276 99.7412444,36.2841647 100.807943,35.1846122 C101.158805,34.8229436 101.158805,34.8229436 102.562253,33.3762693 C104.316563,31.5679263 104.316563,31.5679263 106.421735,29.3979148 C108.299536,27.4622768 108.299536,27.4622768 109.928324,25.7833219 C110.458463,25.2368551 111.179387,24.491945 112.0437,23.5978037 C112.04786,23.5935003 112.04786,23.5935003 112.05202,23.589197 C112.725251,22.8927276 113.445992,22.1465726 114.166379,21.4004263 C114.574557,20.9776235 114.574557,20.9776235 114.862629,20.679161 C115.078677,20.455298 115.078677,20.455298 115.126733,20.4054942 L115.204484,20.3196294 C116.995413,18.2113558 118,15.5100261 118,12.654268 C118,6.22333486 112.932737,1 106.669597,1 C103.018261,1 99.6562823,2.79072251 97.5363771,5.75606431 L100.463623,5.75606431 C98.3437177,2.79072251 94.9817392,1 91.3304029,1 C85.0672628,1 80,6.22333486 80,12.654268 L80,12.654268 Z" id="Heart"></path>
                            </g>
                            <g id="Group-30" transform="translate(119.000000, 1.000000)">
                                <path d="M13.4990357,5.83333333 C9.24267857,5.83527778 5.78667857,9.31972222 5.78475,13.6111111 C5.78475,14.1477778 6.21578571,14.5833333 6.74903571,14.5833333 C7.28132143,14.5833333 7.71332143,14.1477778 7.71332143,13.6111111 C7.71332143,12.0011111 8.36035714,10.5486111 9.41046429,9.48888889 C10.4615357,8.43013889 11.9021786,7.77777778 13.4990357,7.77777778 C14.0313214,7.77777778 14.4633214,7.34222222 14.4633214,6.80555556 C14.4633214,6.26888889 14.0313214,5.83333333 13.4990357,5.83333333" id="Fill-252"></path>
                                <path d="M9.64189286,27.2222222 L17.3561786,27.2222222 C17.8884643,27.2222222 18.3204643,26.7866667 18.3204643,26.25 C18.3204643,25.7133333 17.8884643,25.2777778 17.3561786,25.2777778 L9.64189286,25.2777778 C9.10864286,25.2777778 8.67760714,25.7133333 8.67760714,26.25 C8.67760714,26.7866667 9.10864286,27.2222222 9.64189286,27.2222222" id="Fill-254"></path>
                                <path d="M20.3842766,21.5545312 C18.8742052,22.7926562 17.8392856,24.6279686 17.8392856,26.7093748 L17.8392856,30.6249998 L15.7857187,30.6249998 L15.5340401,31.3621872 C15.2519865,32.1923435 14.435116,32.8168747 13.5,32.8124997 C12.5670536,32.8168747 11.7425893,32.1934372 11.4399241,31.3468747 L11.1806518,30.6249998 L9.16071434,30.6249998 L9.16071434,26.7093748 C9.15962952,24.6170311 8.09758936,22.7893749 6.59294206,21.5523437 L6.59836617,21.5578124 C4.18680818,19.5420312 2.65287071,16.5276563 2.65178589,13.1250001 C2.65178589,10.1117189 3.86787069,7.38281269 5.83573672,5.39765647 C7.80468758,3.41359401 10.511317,2.18750028 13.5,2.18750028 C16.4897678,2.18750028 19.1953124,3.41359401 21.165348,5.39765647 C23.1321293,7.38281269 24.3482141,10.1117189 24.3482141,13.1250001 C24.3471292,16.5276563 22.8142766,19.5398437 20.3842766,21.5545312 L20.3842766,21.5545312 Z M13.5,3.20197614e-07 C6.32390635,0.00218782016 0.485397533,5.88984396 0.482143069,13.1250001 C0.482143069,17.2025 2.33176357,20.8381249 5.21413405,23.2421874 L5.22064298,23.2465624 C6.31848225,24.1543749 6.99324116,25.3892186 6.99107152,26.7093748 L6.99107152,30.6249998 C6.9899867,31.2199997 7.22864741,31.778906 7.6235224,32.1748435 C8.01622775,32.5729685 8.57057149,32.8135935 9.16071434,32.8124997 L9.74434826,32.8124997 C10.5015536,34.1140622 11.8955491,34.9956247 13.5,34.9999997 C15.0990267,34.9967184 16.4951919,34.1184372 17.241549,32.8124997 L17.8392856,32.8124997 C18.4294285,32.8135935 18.984857,32.5729685 19.3764775,32.1748435 C19.7713525,31.778906 20.0100132,31.2199997 20.0089284,30.6249998 L20.0089284,26.7093748 C20.0089284,25.3782811 20.6663302,24.1499999 21.7587454,23.2465624 C24.6671516,20.8414062 26.5189417,17.2025 26.5178569,13.1250001 C26.5156872,5.88984396 20.6760936,0.00218782016 13.5,3.20197614e-07 L13.5,3.20197614e-07 Z" id="Fill-255" stroke="#F8A000"></path>
                            </g>
                        </g>
                        <g id="Group-17" transform="translate(0.000000, 44.000000)">
                            <path d="M20.1993667,0.364933333 C20.1978333,0.3473 20.2116333,0.331966667 20.2085667,0.314333333 C20.1978333,0.275233333 20.1610333,0.256066667 20.1411,0.2231 C20.1142667,0.175566667 20.0943333,0.134933333 20.0529333,0.101966667 C20.0123,0.069 19.9663,0.0582666667 19.9134,0.0452333333 C19.8758333,0.0329666667 19.849,0 19.8068333,0 C19.7876667,0 19.7769333,0.0161 19.7600667,0.0191666667 C19.7409,0.0207 19.7271,0.0069 19.7094667,0.0115 L5.85426667,3.37333333 C5.81516667,3.38406667 5.796,3.42086667 5.76303333,3.4408 C5.71626667,3.46763333 5.67486667,3.48756667 5.6419,3.5305 C5.6074,3.57266667 5.5982,3.61866667 5.5821,3.67156667 C5.57136667,3.70913333 5.53993333,3.73443333 5.53993333,3.77506667 L5.53993333,16.4089667 L3.1832,16.4089667 C1.42676667,16.4089667 0,17.8357333 0,19.5906333 C0,21.3455333 1.42676667,22.7738333 3.1832,22.7738333 C4.93656667,22.7738333 6.36486667,21.3455333 6.36486667,19.5906333 L6.36486667,16.8222 L6.36486667,8.1466 L19.3936,4.98563333 L19.3936,13.0463667 L17.0368667,13.0463667 C15.2819667,13.0463667 13.8536667,14.4746667 13.8536667,16.2295667 C13.8536667,17.9844667 15.2819667,19.4127667 17.0368667,19.4127667 C18.7917667,19.4127667 20.2185333,17.9844667 20.2185333,16.2295667 L20.2185333,13.4596 L20.2185333,0.414 C20.2185333,0.3933 20.2024333,0.382566667 20.1993667,0.364933333 L20.1993667,0.364933333 Z M3.18243333,21.9481333 C1.8814,21.9481333 0.822633333,20.8893667 0.822633333,19.5898667 C0.822633333,18.2903667 1.8814,17.2331333 3.18243333,17.2331333 L5.53916667,17.2331333 L5.53916667,19.5898667 C5.53993333,20.8893667 4.48116667,21.9481333 3.18243333,21.9481333 L3.18243333,21.9481333 Z M6.36486667,7.29636667 L6.36486667,4.09936667 L19.3936,0.936866667 L19.3936,4.13386667 L6.36486667,7.29636667 L6.36486667,7.29636667 Z M17.0368667,18.5870667 C15.7373667,18.5870667 14.6786,17.5283 14.6786,16.2288 C14.6786,14.9293 15.7373667,13.8705333 17.0368667,13.8705333 L19.3936,13.8705333 L19.3936,16.2288 C19.3936,17.5283 18.3363667,18.5870667 17.0368667,18.5870667 L17.0368667,18.5870667 Z" id="Musical-note-2" stroke="#23213C" fill="#23213C" opacity="0.949999988"></path>
                            <g id="Group-3" transform="translate(24.000000, 4.000000)" stroke="#23213C" stroke-linecap="round" opacity="0.850000024" stroke-linejoin="round">
                                <path d="M0.5,1.15 L15.5,1.15" id="Line" stroke-width="2.3"></path>
                                <path d="M0.5,7.1 L23.5,7.1" id="Line" stroke-width="2.2"></path>
                                <path d="M0.5,13.15 L15.5,13.15" id="Line" stroke-width="2.3"></path>
                            </g>
                            <g id="Group-4" transform="translate(52.000000, 2.000000)" stroke="#23213C" stroke-width="4" opacity="0.850000024">
                                <use id="Rectangle-3" mask="url(#mask-2)" xlink:href="#path-1"></use>
                                <use id="Triangle-2" mask="url(#mask-4)" xlink:href="#path-3"></use>
                            </g>
                            <g id="Group-4" transform="translate(78.000000, 2.000000)" stroke="#23213C" opacity="0.850000024">
                                <use id="Rectangle-3" mask="url(#mask-6)" stroke-width="4" xlink:href="#path-5"></use>
                                <path d="M2,14.6449023 C2,14.6449023 8.18430225,5 9.11842489,5 C10.0525475,5 13.0508606,10.931686 13.0508606,10.931686 C13.0508606,10.931686 14.9219136,9.19984152 14.9219135,9.1998413 C15.7027348,9.19984152 17.9899998,13.7197829 17.9899998,13.7197829" id="Path-7" stroke-width="2" stroke-linecap="round" stroke-linejoin="round"></path>
                            </g>
                            <path d="M121.863636,14.6363636 L121.863636,14.6363636 C122.440727,14.6363636 122.909091,14.168 122.909091,13.5909091 L122.909091,7.31818182 C122.909091,6.74109091 122.440727,6.27272727 121.863636,6.27272727 C121.286545,6.27272727 120.818182,6.74109091 120.818182,7.31818182 L120.818182,13.5909091 C120.818182,14.168 121.286545,14.6363636 121.863636,14.6363636 L121.863636,14.6363636 Z M122.909091,18.8181818 L122.909091,18.4700455 L122.909091,17.7727273 C122.909091,17.1956364 122.440727,16.7272727 121.863636,16.7272727 C121.286545,16.7272727 120.818182,17.1956364 120.818182,17.7727273 L120.818182,18.8181818 L120.470045,18.8181818 L119.772727,18.8181818 C119.195636,18.8181818 118.727273,19.2865455 118.727273,19.8636364 C118.727273,20.4407273 119.195636,20.9090909 119.772727,20.9090909 L120.818182,20.9090909 L120.818182,21.2572273 L120.818182,21.9545455 C120.818182,22.5316364 121.286545,23 121.863636,23 C122.440727,23 122.909091,22.5316364 122.909091,21.9545455 L122.909091,20.9090909 L123.257227,20.9090909 L123.954545,20.9090909 C124.531636,20.9090909 125,20.4407273 125,19.8636364 C125,19.2865455 124.531636,18.8181818 123.954545,18.8181818 L122.909091,18.8181818 Z M120.806682,0 L119.772727,0 C119.195636,0 118.727273,0.468363636 118.727273,1.04545455 L118.727273,1.04545455 C118.727273,1.62254545 119.195636,2.09090909 119.772727,2.09090909 C120.349818,2.09090909 120.818182,2.55927273 120.818182,3.13636364 C120.818182,3.71345455 121.286545,4.18181818 121.863636,4.18181818 L121.863636,4.18181818 C122.440727,4.18181818 122.909091,3.71345455 122.909091,3.13636364 L122.909091,2.10240909 C122.909091,0.940909091 121.968182,0 120.806682,0 L120.806682,0 Z M103.045455,6.27272727 L103.045455,6.27272727 C102.468364,6.27272727 102,6.74109091 102,7.31818182 L102,13.5909091 C102,14.168 102.468364,14.6363636 103.045455,14.6363636 C103.622545,14.6363636 104.090909,14.168 104.090909,13.5909091 L104.090909,7.31818182 C104.090909,6.74109091 103.622545,6.27272727 103.045455,6.27272727 L103.045455,6.27272727 Z M103.045455,16.7272727 L103.045455,16.7272727 C102.468364,16.7272727 102,17.1956364 102,17.7727273 L102,18.4700455 L102,18.814 C102,19.9713182 102.937773,20.9090909 104.095091,20.9090909 L104.53,20.9090909 L105.136364,20.9090909 C105.713455,20.9090909 106.181818,20.4407273 106.181818,19.8636364 C106.181818,19.2865455 105.713455,18.8181818 105.136364,18.8181818 C104.559273,18.8181818 104.090909,18.3498182 104.090909,17.7727273 C104.090909,17.1956364 103.622545,16.7272727 103.045455,16.7272727 L103.045455,16.7272727 Z M102,2.07418182 L102,3.13636364 C102,3.71345455 102.468364,4.18181818 103.045455,4.18181818 C103.622545,4.18181818 104.090909,3.71345455 104.090909,3.13636364 L104.090909,3.13113636 C104.090909,2.55718182 104.557182,2.09090909 105.131136,2.09090909 L105.136364,2.09090909 C105.713455,2.09090909 106.181818,1.62254545 106.181818,1.04545455 C106.181818,0.468363636 105.713455,0 105.136364,0 L104.074182,0 C102.928364,0 102,0.928363636 102,2.07418182 L102,2.07418182 Z M109.318182,20.9090909 L115.590909,20.9090909 C116.168,20.9090909 116.636364,20.4407273 116.636364,19.8636364 C116.636364,19.2865455 116.168,18.8181818 115.590909,18.8181818 L109.318182,18.8181818 C108.741091,18.8181818 108.272727,19.2865455 108.272727,19.8636364 C108.272727,20.4407273 108.741091,20.9090909 109.318182,20.9090909 L109.318182,20.9090909 Z M108.272727,1.04545455 L108.272727,1.04545455 C108.272727,0.468363636 108.741091,0 109.318182,0 L115.590909,0 C116.168,0 116.636364,0.468363636 116.636364,1.04545455 C116.636364,1.62254545 116.168,2.09090909 115.590909,2.09090909 L109.318182,2.09090909 C108.741091,2.09090909 108.272727,1.62254545 108.272727,1.04545455 L108.272727,1.04545455 Z" id="focus_plus_round-[#895]" fill="#23213C"></path>
                        </g>
                    </g>
                </g>
            </g>
        </g>
    </g>
</svg>