<?xml version="1.0" encoding="UTF-8" standalone="no"?>
<svg width="245px" height="61px" viewBox="0 0 245 61" version="1.1" xmlns="http://www.w3.org/2000/svg" xmlns:xlink="http://www.w3.org/1999/xlink">
    <!-- Generator: Sketch 39.1 (31720) - http://www.bohemiancoding.com/sketch -->
    <title>Group 5</title>
    <desc>Created with Sketch.</desc>
    <defs>
        <rect id="path-1" x="0" y="0" width="20" height="17.3913043" rx="2.04999995"></rect>
        <mask id="mask-2" maskContentUnits="userSpaceOnUse" maskUnits="objectBoundingBox" x="-2" y="-2" width="24" height="21.3913043">
            <rect x="-2" y="-2" width="24" height="21.3913043" fill="white"></rect>
            <use xlink:href="#path-1" fill="black"></use>
        </mask>
        <path d="M8.84692779,12.1718286 C8.37918249,12.4641694 8,12.2544598 8,11.7052164 L8,6.19710057 C8,5.64705695 8.37532687,5.43573778 8.84692779,5.73048835 L13.1530722,8.42182861 C13.6208175,8.71416943 13.6246731,9.18573778 13.1530722,9.48048835 L8.84692779,12.1718286 Z" id="path-3"></path>
        <mask id="mask-4" maskContentUnits="userSpaceOnUse" maskUnits="objectBoundingBox" x="0" y="0" width="5.50532853" height="6.30382418" fill="white">
            <use xlink:href="#path-3"></use>
        </mask>
        <rect id="path-5" x="0" y="0" width="20" height="17.3913043" rx="2.04999995"></rect>
        <mask id="mask-6" maskContentUnits="userSpaceOnUse" maskUnits="objectBoundingBox" x="-2" y="-2" width="24" height="21.3913043">
            <rect x="-2" y="-2" width="24" height="21.3913043" fill="white"></rect>
            <use xlink:href="#path-5" fill="black"></use>
        </mask>
    </defs>
    <g id="Page-1" stroke="none" stroke-width="1" fill="none" fill-rule="evenodd">
        <g id="Group-18" transform="translate(1.000000, 1.000000)">
            <g id="Group-5">
                <g id="Group-15" fill="#F8A000">
                    <g id="Group-14">
                        <path d="M217.352668,11.7068966 C216.818244,11.7068966 216.4,12.1258621 216.4,12.6612069 L216.4,16.3853448 C216.4,16.9206897 216.818244,17.3396552 217.352668,17.3396552 L219.095353,17.3396552 C219.350947,18.3405172 219.745955,19.2948276 220.280379,20.1793103 L219.072117,21.3896552 C218.700344,21.762069 218.700344,22.3672414 219.072117,22.7396552 L221.697762,25.3698276 C222.069535,25.7422414 222.673666,25.7422414 223.045439,25.3698276 L224.276936,24.1362069 C225.159897,24.6482759 226.112565,25.0439655 227.111704,25.3 L227.111704,27.0456897 C227.111704,27.5810345 227.529948,28 228.064372,28 L231.7821,28 C232.316523,28 232.734768,27.5810345 232.734768,27.0456897 L232.734768,25.2767241 C233.733907,25.0206897 234.663339,24.625 235.546299,24.112931 L236.801033,25.3698276 C237.172806,25.7422414 237.776936,25.7422414 238.148709,25.3698276 L240.774355,22.7396552 C241.146127,22.3672414 241.146127,21.762069 240.774355,21.3896552 L239.519621,20.1327586 C240.030809,19.2482759 240.425818,18.3172414 240.681411,17.3163793 L242.447332,17.3163793 C242.981756,17.3163793 243.4,16.8974138 243.4,16.362069 L243.4,12.637931 C243.4,12.1025862 242.981756,11.6836207 242.447332,11.6836207 L240.681411,11.6836207 C240.425818,10.6827586 240.030809,9.75172414 239.519621,8.86724138 L240.774355,7.61034483 C241.146127,7.23793103 241.146127,6.63275862 240.774355,6.26034483 L238.125473,3.65344828 C237.753701,3.28103448 237.14957,3.28103448 236.777797,3.65344828 L235.546299,4.88706897 C234.663339,4.375 233.710671,3.97931034 232.711532,3.7 L232.711532,1.95431034 C232.711532,1.41896552 232.293287,1 231.758864,1 L228.041136,1 C227.506713,1 227.088468,1.41896552 227.088468,1.95431034 L227.088468,3.7 C226.089329,3.95603448 225.136661,4.35172414 224.253701,4.8637931 L223.022203,3.63017241 C222.65043,3.25775862 222.046299,3.25775862 221.674527,3.63017241 L219.048881,6.28362069 C218.677108,6.65603448 218.677108,7.2612069 219.048881,7.63362069 L220.257143,8.84396552 C219.722719,9.72844828 219.327711,10.6827586 219.072117,11.7068966 L217.352668,11.7068966 L217.352668,11.7068966 Z M220.791566,12.8241379 C221.023924,11.5206897 221.535112,10.3336207 222.255422,9.26293103 C222.511015,8.89051724 222.464544,8.37844828 222.139243,8.05258621 L221.070396,6.95862069 L222.348365,5.67844828 L223.440448,6.77241379 C223.765749,7.09827586 224.276936,7.14482759 224.648709,6.8887931 C225.717556,6.14396552 226.925818,5.65517241 228.203787,5.42241379 C228.645267,5.32931034 228.993804,4.95689655 228.993804,4.49137931 L228.993804,2.93189655 L230.806196,2.93189655 L230.806196,4.49137931 C230.806196,4.95689655 231.131497,5.35258621 231.572978,5.42241379 C232.850947,5.65517241 234.035972,6.16724138 235.104819,6.8887931 C235.476592,7.14482759 235.98778,7.09827586 236.313081,6.77241379 L237.428399,5.65517241 L238.706368,6.93534483 L237.59105,8.05258621 C237.265749,8.37844828 237.219277,8.89051724 237.474871,9.26293103 C238.195181,10.3336207 238.683133,11.5206897 238.938726,12.8008621 C239.03167,13.2431034 239.426678,13.5922414 239.868158,13.5922414 L241.448193,13.5922414 L241.448193,15.4077586 L239.868158,15.4077586 C239.403442,15.4077586 239.008434,15.7336207 238.938726,16.1758621 C238.706368,17.4560345 238.218417,18.6431034 237.474871,19.7137931 C237.219277,20.0862069 237.265749,20.5982759 237.59105,20.9241379 L238.706368,22.0413793 L237.428399,23.3215517 L236.313081,22.2043103 C235.98778,21.8784483 235.476592,21.8318966 235.104819,22.087931 C234.035972,22.8327586 232.850947,23.3215517 231.572978,23.5543103 C231.131497,23.6474138 230.806196,24.0431034 230.806196,24.4853448 L230.806196,26.0448276 L228.993804,26.0448276 L228.993804,24.4853448 C228.993804,24.0198276 228.668503,23.6241379 228.203787,23.5543103 C226.902582,23.3215517 225.717556,22.8327586 224.648709,22.087931 C224.276936,21.8318966 223.765749,21.8784483 223.440448,22.2043103 L222.348365,23.2982759 L221.070396,22.087931 L222.162478,20.9939655 C222.48778,20.6681034 222.534251,20.1560345 222.278657,19.7836207 C221.535112,18.712931 221.04716,17.5025862 220.791566,16.2224138 C220.698623,15.7801724 220.32685,15.4543103 219.862134,15.4543103 L218.328571,15.4543103 L218.328571,13.6387931 L219.862134,13.6387931 C220.303614,13.6155172 220.698623,13.2896552 220.791566,12.8241379 L220.791566,12.8241379 Z M229.876764,21.2034483 C233.478313,21.2034483 236.406024,18.2706897 236.406024,14.662931 C236.406024,11.0551724 233.478313,8.12241379 229.876764,8.12241379 C226.275215,8.12241379 223.347504,11.0551724 223.347504,14.662931 C223.347504,18.2706897 226.275215,21.2034483 229.876764,21.2034483 L229.876764,21.2034483 Z M229.876764,10.0310345 C232.432702,10.0310345 234.500688,12.1025862 234.500688,14.662931 C234.500688,17.2232759 232.432702,19.2948276 229.876764,19.2948276 C227.320826,19.2948276 225.25284,17.2232759 225.25284,14.662931 C225.25284,12.1025862 227.320826,10.0310345 229.876764,10.0310345 L229.876764,10.0310345 Z" id="settings-1-copy"></path>
                        <path d="M209.4,16.0292712 L209.4,23.922484 C209.4,25.1684841 208.37075,26.1788153 207.1,26.1788153 L191.23805,26.1788153 C190.7263,26.1788153 190.46985,26.7854651 190.8321,27.1406597 L192.7664,29.0372859 C193.2149,29.4770507 193.2149,30.1908226 192.7664,30.6317149 C192.31675,31.0714796 191.5888,31.0714796 191.13915,30.6317149 C189.56365,29.0857728 188.39755,27.9435122 187.0739,26.6445149 C186.17575,25.7638578 186.17575,24.3363139 187.0739,23.4556569 L191.13915,19.4684568 C191.5888,19.0286921 192.31675,19.0286921 192.7664,19.4684568 C193.2149,19.9093491 193.2149,20.6231211 192.7664,21.0640134 L190.8321,22.9606397 C190.46985,23.3158343 190.7263,23.9236116 191.23805,23.9236116 L205.95,23.9236116 C206.5848,23.9236116 207.1,23.4173184 207.1,22.7948822 L207.1,16.0292712 C207.1,15.406835 207.6152,14.9016694 208.25,14.9016694 C208.8848,14.9016694 209.4,15.406835 209.4,16.0292712 M186.4,14.9326902 L186.4,7.0394774 C186.4,5.79460499 187.42925,4.5113941 188.7,4.5113941 L204.56195,4.5113941 C205.0737,4.5113941 205.33015,4.04005654 204.9679,3.68486196 L203.0336,1.92580311 C202.5851,1.48491079 202.5851,0.771138836 203.0336,0.330246521 C203.48325,-0.109518192 204.2112,-0.110645794 204.66085,0.330246521 C205.29565,0.952682731 208.09705,3.69952079 208.7261,4.31293618 C209.62425,5.19359321 209.62425,6.61775432 208.7261,7.49841135 L204.66085,11.4765906 C204.2112,11.9163553 203.48325,11.8994413 203.0336,11.4596766 C202.5851,11.0187843 202.5851,10.2711842 203.0336,9.83029193 L204.9679,7.86600955 C205.33015,7.51081497 205.0737,6.76659776 204.56195,6.76659776 L189.85,6.76659776 C189.2152,6.76659776 188.7,7.54464302 188.7,8.16707923 L188.7,14.9326902 C188.7,15.556254 188.1848,16.060292 187.55,16.060292 C186.9152,16.060292 186.4,15.556254 186.4,14.9326902" id="arrow_repeat-[#242]"></path>
                        <path d="M112.437827,18.7708915 L103.855389,18.0881264 L103.841476,9.43519494 C103.841476,8.82962698 103.25911,7.71970495 101.845929,7.71970495 C100.748776,7.71970495 99.8503832,8.48824447 99.8503832,9.43519494 L99.8503832,24.0082824 L98.1947159,21.9634183 C97.4930946,21.1022424 96.0660008,20.9941665 95.2033842,21.7386891 C94.5335644,22.3185248 94.4401474,23.2294499 94.9807735,23.901922 L99.2719928,30.7810369 C99.6436732,31.2459347 100.255853,31.3076923 100.909772,31.3076923 L110.519797,31.3076923 C112.415964,31.3076923 114.04778,30.3676038 114.41946,28.7653361 L115.079342,22.5912877 C115.472886,20.8946681 114.339957,19.3181328 112.437827,18.7708915 M93.8875958,12.8661749 C92.7904429,12.8661749 91.9,12.0993509 91.9,11.1506849 L91.9,9.00632244 C91.9,-3.00210748 111.775958,-3.00210748 111.775958,9.00632244 L111.775958,11.1506849 C111.775958,12.0993509 110.885515,12.8661749 109.788362,12.8661749 C108.691209,12.8661749 107.800766,12.0993509 107.800766,11.1506849 L107.800766,9.00632244 C107.800766,2.14436249 95.8751916,2.14436249 95.8751916,9.00632244 L95.8751916,11.1506849 C95.8751916,12.0993509 94.9847487,12.8661749 93.8875958,12.8661749" id="tap_click_force_touch-[#1383]"></path>
                        <path d="M85.5457028,18.2864386 C84.9246472,20.6124878 83.6214675,22.6505823 81.8696476,24.1619318 L81.9,24.1619318 L80.6740996,29.034506 C80.4867243,29.7792649 79.7037055,30.375 78.9226919,30.375 L70.0273081,30.375 C69.2434741,30.375 68.4621626,29.7748404 68.2759004,29.034506 L67.05,24.1619318 L67.0803524,24.1619318 C64.5850437,22.0091514 63,18.787636 63,15.1875 C63,11.587364 64.5850437,8.36584857 67.0803524,6.21306818 L67.05,6.21306818 L68.2759004,1.34049401 C68.4621626,0.600159613 69.2434741,1.77635684e-15 70.0273081,1.77635684e-15 L78.9226919,1.77635684e-15 C79.7037055,1.77635684e-15 80.4867243,0.595735096 80.6740996,1.34049401 L81.9,6.21306818 L81.8696476,6.21306818 C83.9088647,7.97236419 85.3401622,10.445414 85.7952592,13.2555669 C85.9409758,13.1669614 86.1088336,13.1164773 86.2875,13.1164773 C86.8466883,13.1164773 87.3,13.6109991 87.3,14.2210227 L87.3,17.5346591 C87.3,18.1446827 86.8466883,18.6392045 86.2875,18.6392045 C85.9945092,18.6392045 85.7305848,18.5034428 85.5457028,18.2864386 Z M74.475,24.1619318 C79.3212987,24.1619318 83.25,20.1439418 83.25,15.1875 C83.25,10.2310582 79.3212987,6.21306818 74.475,6.21306818 C69.6287013,6.21306818 65.7,10.2310582 65.7,15.1875 C65.7,20.1439418 69.6287013,24.1619318 74.475,24.1619318 Z M74.7030513,14.8705133 L77.152747,12.3651428 C77.5481529,11.9607505 78.1892324,11.9607505 78.5846383,12.3651429 C78.9800441,12.7695352 78.9800441,13.4251848 78.5846382,13.8295771 L75.5284456,16.9552285 C75.169088,17.3227533 74.6068097,17.3562597 74.2104525,17.0557476 L69.4989963,13.6139371 C69.0439661,13.2815286 68.9385733,12.6347999 69.2635949,12.1694281 C69.5886165,11.7040562 70.2209734,11.5962681 70.6760037,11.9286766 L74.7030513,14.8705133 Z" id="Watch-fill"></path>
                        <g id="Group" transform="translate(31.000000, 0.000000)">
                            <polygon id="file_love_favorite-[#1580]-copy-2" points="27 8.78689601 27 28.9042632 11.3006215 28.9042634 11.3006215 26.0138374 11.8856436 26.0138369 24.6169071 26.0138369 24.6169071 11.5617053 17.4676283 11.5617053 17.4676283 2.89042632 5.55216356 2.89042632 5.55216356 20.2329842 3.16907063 20.2329842 3.16907063 1.42108547e-14 20.0842643 1.42108547e-14"></polygon>
                            <g id="Group-Copy" transform="translate(0.053686, 20.656250)">
                                <path d="M1.41180251,8.46983406 C0.36634257,7.319729 0.485435198,2.48774436 0.526898571,2.14989064 C0.552813178,1.93964167 0.712873989,1.76291819 0.944581069,1.68833048 C0.944581069,1.68833048 2.35572937,1.50892443 3.24904722,1.22255493 C3.76528081,1.05706674 5.17323538,0.332757406 5.17323538,0.332757406 C5.32567425,0.283638673 5.30990564,0.281039797 5.46142987,0.332757405 C5.46142987,0.332757405 6.75147203,1.0173191 7.38205642,1.22255493 C8.13660483,1.46813724 9.61682827,1.68521183 9.61682827,1.68521183 C9.84944998,1.76421762 10.0058523,1.94587897 10.0247547,2.1589867 C10.0528034,2.47682908 10.08882,7.41079278 9.02475682,8.46983406 C8.8770194,8.61687424 5.77536891,11.0822051 5.17323538,11.0822051 C4.51561411,11.0822051 1.53893856,8.60969577 1.41180251,8.46983406 Z" id="Fill-1"></path>
                            </g>
                        </g>
                        <g id="Group-2" transform="translate(0.400000, 0.000000)">
                            <path d="M8.72318585,22.087242 C7.47143721,21.7754142 6.35577749,22.3342744 5.6079621,23.2900062 C5.50286372,23.4236466 5.29536179,23.4263464 5.19026341,23.2940559 C4.38585659,22.2708289 3.15162434,21.7038694 1.83654719,22.1587869 C-0.246556587,22.8782855 -0.974160751,26.0694578 1.89313862,28.7395673 C4.92617005,31.5662656 5.41258691,31.9482883 8.80672559,28.8300108 C11.8694002,26.0154617 11.0259183,22.6609511 8.72318585,22.087242 L8.72318585,22.087242 Z" id="file_love_favorite-[#1580]-copy"></path>
                            <g id="Group-Copy-2" transform="translate(4.000000, 0.000000)">
                                <polygon id="file_love_favorite-[#1580]-copy-2" points="24 8.78689601 24 28.9042632 8.30062152 28.9042634 8.30062152 26.0138374 8.88564359 26.0138369 21.6169071 26.0138369 21.6169071 11.5617053 14.4676283 11.5617053 14.4676283 2.89042632 2.55216356 2.89042632 2.55216351 20.6386719 0.169070626 20.6386719 0.169070626 1.42108547e-14 17.0842643 1.42108547e-14"></polygon>
                            </g>
                        </g>
                        <path d="M123.761905,11.9904353 C123.761905,8.58886139 126.400922,5.83908097 129.646886,5.83908097 C131.53766,5.83908097 133.278185,6.77620011 134.383025,8.3384088 L135.5,9.91777642 L136.616975,8.3384088 C137.721815,6.77620011 139.46234,5.83908097 141.353114,5.83908097 C144.599078,5.83908097 147.238095,8.58886139 147.238095,11.9904353 C147.238095,13.5065312 146.713261,14.9331025 145.776529,16.0477695 L145.835865,15.9815309 C145.799304,16.0198324 145.799304,16.0198324 145.634561,16.192385 C145.414865,16.4224718 145.414865,16.4224718 145.103543,16.7484428 C144.554131,17.3236673 144.004462,17.8988851 143.491112,18.4357104 C143.487941,18.4390268 143.487941,18.4390268 143.484769,18.4423432 C142.826225,19.1309981 142.277061,19.7045822 141.873885,20.1246804 C140.630862,21.4198742 140.630862,21.4198742 139.197803,22.9130807 C137.591225,24.5870896 137.591225,24.5870896 136.252409,25.982097 C135.181357,27.0981029 135.181357,27.0981029 134.913594,27.3771044 C135.192112,27.086896 135.651118,27.0913209 135.918978,27.3753218 L125.107496,15.9123604 L125.17273,15.9865889 C124.26731,14.8803457 123.761905,13.4783977 123.761905,11.9904353 L123.761905,11.9904353 Z M123.059316,17.8143621 L123.12455,17.8885905 L133.936032,29.351552 C134.742348,30.2064556 136.065687,30.2192128 136.879746,29.3709865 C137.147509,29.0919851 137.147509,29.0919851 138.218561,27.9759791 C139.557377,26.5809717 139.557377,26.5809717 141.163955,24.9069629 C142.597014,23.4137564 142.597014,23.4137564 143.840037,22.1185626 C144.244616,21.6970025 144.794795,21.1223575 145.454403,20.4325914 C145.974534,19.8886756 146.524573,19.3130703 147.074342,18.7374717 C147.385846,18.4113095 147.385846,18.4113095 147.605691,18.1810671 C147.77057,18.0083728 147.77057,18.0083728 147.807244,17.9699527 L147.86658,17.9037141 C149.233341,16.2773316 150,14.1934487 150,11.9904353 C150,7.02942975 146.132878,3 141.353114,3 C138.566567,3 136.000847,4.38141451 134.383025,6.66896389 L136.616975,6.66896389 C134.999153,4.38141451 132.433433,3 129.646886,3 C124.867122,3 121,7.02942975 121,11.9904353 C121,14.152418 121.738268,16.2003043 123.059316,17.8143621 Z" id="Heart"></path>
                    </g>
                    <g id="Group-30" transform="translate(156.000000, 0.000000)">
                        <path d="M11.9991429,5.16666667 C8.21571429,5.16838889 5.14371429,8.25461111 5.142,12.0555556 C5.142,12.5308889 5.52514286,12.9166667 5.99914286,12.9166667 C6.47228571,12.9166667 6.85628571,12.5308889 6.85628571,12.0555556 C6.85628571,10.6295556 7.43142857,9.34305556 8.36485714,8.40444444 C9.29914286,7.46669444 10.5797143,6.88888889 11.9991429,6.88888889 C12.4722857,6.88888889 12.8562857,6.50311111 12.8562857,6.02777778 C12.8562857,5.55244444 12.4722857,5.16666667 11.9991429,5.16666667" id="Fill-252"></path>
                        <path d="M8.57057143,24.1111111 L15.4277143,24.1111111 C15.9008571,24.1111111 16.2848571,23.7253333 16.2848571,23.25 C16.2848571,22.7746667 15.9008571,22.3888889 15.4277143,22.3888889 L8.57057143,22.3888889 C8.09657143,22.3888889 7.71342857,22.7746667 7.71342857,23.25 C7.71342857,23.7253333 8.09657143,24.1111111 8.57057143,24.1111111" id="Fill-254"></path>
                        <path d="M18.119357,19.0911562 C16.7770713,20.1877812 15.8571428,21.8133436 15.8571428,23.6568749 L15.8571428,27.1249998 L14.0317499,27.1249998 L13.8080357,27.7779373 C13.5573214,28.5132185 12.8312142,29.0663748 12,29.0624998 C11.1707143,29.0663748 10.4378571,28.5141873 10.1688214,27.7643748 L9.93835716,27.1249998 L8.14285719,27.1249998 L8.14285719,23.6568749 C8.1418929,21.8036561 7.19785721,20.1848749 5.86039295,19.0892187 L5.86521437,19.0940624 C3.72160727,17.3086562 2.3581073,14.6387813 2.35714301,11.6250001 C2.35714301,8.95609387 3.43810728,6.53906266 5.18732153,4.78078145 C6.93750007,3.02346898 9.34339288,1.93750025 12,1.93750025 C14.6575714,1.93750025 17.0624999,3.02346898 18.8136427,4.78078145 C20.5618927,6.53906266 21.6428569,8.95609387 21.6428569,11.6250001 C21.6418927,14.6387813 20.279357,17.3067187 18.119357,19.0911562 L18.119357,19.0911562 Z M12,2.83603612e-07 C5.62125009,0.00193778357 0.431464474,5.21671894 0.428571617,11.6250001 C0.428571617,15.2365 2.07267873,18.4566249 4.63478583,20.5859374 L4.64057154,20.5898124 C5.61642866,21.3938749 6.21621437,22.4875936 6.2142858,23.6568749 L6.2142858,27.1249998 C6.21332151,27.6519998 6.42546436,28.147031 6.77646436,28.4977185 C7.12553578,28.8503435 7.61828577,29.0634685 8.14285719,29.0624998 L8.66164289,29.0624998 C9.33471431,30.2153122 10.5738214,30.9961247 12,30.9999997 C13.4213571,30.9970935 14.6623928,30.2191872 15.3258213,29.0624998 L15.8571428,29.0624998 C16.3817142,29.0634685 16.8754285,28.8503435 17.2235356,28.4977185 C17.5745356,28.147031 17.7866784,27.6519998 17.7857142,27.1249998 L17.7857142,23.6568749 C17.7857142,22.4779061 18.3700713,21.3899999 19.341107,20.5898124 C21.9263569,18.4595312 23.5723926,15.2365 23.5714283,11.6250001 C23.5694998,5.21671894 18.3787499,0.00193778357 12,2.83603612e-07 L12,2.83603612e-07 Z" id="Fill-255" stroke="#F8A000" stroke-width="0.5"></path>
                    </g>
                </g>
                <g id="Group-17" transform="translate(0.000000, 36.000000)">
                    <path d="M20.1993667,0.364933333 C20.1978333,0.3473 20.2116333,0.331966667 20.2085667,0.314333333 C20.1978333,0.275233333 20.1610333,0.256066667 20.1411,0.2231 C20.1142667,0.175566667 20.0943333,0.134933333 20.0529333,0.101966667 C20.0123,0.069 19.9663,0.0582666667 19.9134,0.0452333333 C19.8758333,0.0329666667 19.849,0 19.8068333,0 C19.7876667,0 19.7769333,0.0161 19.7600667,0.0191666667 C19.7409,0.0207 19.7271,0.0069 19.7094667,0.0115 L5.85426667,3.37333333 C5.81516667,3.38406667 5.796,3.42086667 5.76303333,3.4408 C5.71626667,3.46763333 5.67486667,3.48756667 5.6419,3.5305 C5.6074,3.57266667 5.5982,3.61866667 5.5821,3.67156667 C5.57136667,3.70913333 5.53993333,3.73443333 5.53993333,3.77506667 L5.53993333,16.4089667 L3.1832,16.4089667 C1.42676667,16.4089667 0,17.8357333 0,19.5906333 C0,21.3455333 1.42676667,22.7738333 3.1832,22.7738333 C4.93656667,22.7738333 6.36486667,21.3455333 6.36486667,19.5906333 L6.36486667,16.8222 L6.36486667,8.1466 L19.3936,4.98563333 L19.3936,13.0463667 L17.0368667,13.0463667 C15.2819667,13.0463667 13.8536667,14.4746667 13.8536667,16.2295667 C13.8536667,17.9844667 15.2819667,19.4127667 17.0368667,19.4127667 C18.7917667,19.4127667 20.2185333,17.9844667 20.2185333,16.2295667 L20.2185333,13.4596 L20.2185333,0.414 C20.2185333,0.3933 20.2024333,0.382566667 20.1993667,0.364933333 L20.1993667,0.364933333 Z M3.18243333,21.9481333 C1.8814,21.9481333 0.822633333,20.8893667 0.822633333,19.5898667 C0.822633333,18.2903667 1.8814,17.2331333 3.18243333,17.2331333 L5.53916667,17.2331333 L5.53916667,19.5898667 C5.53993333,20.8893667 4.48116667,21.9481333 3.18243333,21.9481333 L3.18243333,21.9481333 Z M6.36486667,7.29636667 L6.36486667,4.09936667 L19.3936,0.936866667 L19.3936,4.13386667 L6.36486667,7.29636667 L6.36486667,7.29636667 Z M17.0368667,18.5870667 C15.7373667,18.5870667 14.6786,17.5283 14.6786,16.2288 C14.6786,14.9293 15.7373667,13.8705333 17.0368667,13.8705333 L19.3936,13.8705333 L19.3936,16.2288 C19.3936,17.5283 18.3363667,18.5870667 17.0368667,18.5870667 L17.0368667,18.5870667 Z" id="Musical-note-2" stroke="#23213C" fill="#23213C" opacity="0.949999988"></path>
                    <g id="Group-3" transform="translate(24.000000, 4.000000)" stroke="#23213C" stroke-linecap="round" opacity="0.850000024" stroke-linejoin="round">
                        <path d="M0.5,1.15 L15.5,1.15" id="Line" stroke-width="2.3"></path>
                        <path d="M0.5,7.1 L23.5,7.1" id="Line" stroke-width="2.2"></path>
                        <path d="M0.5,13.15 L15.5,13.15" id="Line" stroke-width="2.3"></path>
                    </g>
                    <g id="Group-4" transform="translate(52.000000, 2.000000)" stroke="#23213C" stroke-width="4" opacity="0.850000024">
                        <use id="Rectangle-3" mask="url(#mask-2)" xlink:href="#path-1"></use>
                        <use id="Triangle-2" mask="url(#mask-4)" xlink:href="#path-3"></use>
                    </g>
                    <g id="Group-4" transform="translate(78.000000, 2.000000)" stroke="#23213C" opacity="0.850000024">
                        <use id="Rectangle-3" mask="url(#mask-6)" stroke-width="4" xlink:href="#path-5"></use>
                        <path d="M2,14.6449023 C2,14.6449023 8.18430225,5 9.11842489,5 C10.0525475,5 13.0508606,10.931686 13.0508606,10.931686 C13.0508606,10.931686 14.9219136,9.19984152 14.9219135,9.1998413 C15.7027348,9.19984152 17.9899998,13.7197829 17.9899998,13.7197829" id="Path-7" stroke-width="2" stroke-linecap="round" stroke-linejoin="round"></path>
                    </g>
                    <path d="M121.863636,14.6363636 L121.863636,14.6363636 C122.440727,14.6363636 122.909091,14.168 122.909091,13.5909091 L122.909091,7.31818182 C122.909091,6.74109091 122.440727,6.27272727 121.863636,6.27272727 C121.286545,6.27272727 120.818182,6.74109091 120.818182,7.31818182 L120.818182,13.5909091 C120.818182,14.168 121.286545,14.6363636 121.863636,14.6363636 L121.863636,14.6363636 Z M122.909091,18.8181818 L122.909091,18.4700455 L122.909091,17.7727273 C122.909091,17.1956364 122.440727,16.7272727 121.863636,16.7272727 C121.286545,16.7272727 120.818182,17.1956364 120.818182,17.7727273 L120.818182,18.8181818 L120.470045,18.8181818 L119.772727,18.8181818 C119.195636,18.8181818 118.727273,19.2865455 118.727273,19.8636364 C118.727273,20.4407273 119.195636,20.9090909 119.772727,20.9090909 L120.818182,20.9090909 L120.818182,21.2572273 L120.818182,21.9545455 C120.818182,22.5316364 121.286545,23 121.863636,23 C122.440727,23 122.909091,22.5316364 122.909091,21.9545455 L122.909091,20.9090909 L123.257227,20.9090909 L123.954545,20.9090909 C124.531636,20.9090909 125,20.4407273 125,19.8636364 C125,19.2865455 124.531636,18.8181818 123.954545,18.8181818 L122.909091,18.8181818 Z M120.806682,0 L119.772727,0 C119.195636,0 118.727273,0.468363636 118.727273,1.04545455 L118.727273,1.04545455 C118.727273,1.62254545 119.195636,2.09090909 119.772727,2.09090909 C120.349818,2.09090909 120.818182,2.55927273 120.818182,3.13636364 C120.818182,3.71345455 121.286545,4.18181818 121.863636,4.18181818 L121.863636,4.18181818 C122.440727,4.18181818 122.909091,3.71345455 122.909091,3.13636364 L122.909091,2.10240909 C122.909091,0.940909091 121.968182,0 120.806682,0 L120.806682,0 Z M103.045455,6.27272727 L103.045455,6.27272727 C102.468364,6.27272727 102,6.74109091 102,7.31818182 L102,13.5909091 C102,14.168 102.468364,14.6363636 103.045455,14.6363636 C103.622545,14.6363636 104.090909,14.168 104.090909,13.5909091 L104.090909,7.31818182 C104.090909,6.74109091 103.622545,6.27272727 103.045455,6.27272727 L103.045455,6.27272727 Z M103.045455,16.7272727 L103.045455,16.7272727 C102.468364,16.7272727 102,17.1956364 102,17.7727273 L102,18.4700455 L102,18.814 C102,19.9713182 102.937773,20.9090909 104.095091,20.9090909 L104.53,20.9090909 L105.136364,20.9090909 C105.713455,20.9090909 106.181818,20.4407273 106.181818,19.8636364 C106.181818,19.2865455 105.713455,18.8181818 105.136364,18.8181818 C104.559273,18.8181818 104.090909,18.3498182 104.090909,17.7727273 C104.090909,17.1956364 103.622545,16.7272727 103.045455,16.7272727 L103.045455,16.7272727 Z M102,2.07418182 L102,3.13636364 C102,3.71345455 102.468364,4.18181818 103.045455,4.18181818 C103.622545,4.18181818 104.090909,3.71345455 104.090909,3.13636364 L104.090909,3.13113636 C104.090909,2.55718182 104.557182,2.09090909 105.131136,2.09090909 L105.136364,2.09090909 C105.713455,2.09090909 106.181818,1.62254545 106.181818,1.04545455 C106.181818,0.468363636 105.713455,0 105.136364,0 L104.074182,0 C102.928364,0 102,0.928363636 102,2.07418182 L102,2.07418182 Z M109.318182,20.9090909 L115.590909,20.9090909 C116.168,20.9090909 116.636364,20.4407273 116.636364,19.8636364 C116.636364,19.2865455 116.168,18.8181818 115.590909,18.8181818 L109.318182,18.8181818 C108.741091,18.8181818 108.272727,19.2865455 108.272727,19.8636364 C108.272727,20.4407273 108.741091,20.9090909 109.318182,20.9090909 L109.318182,20.9090909 Z M108.272727,1.04545455 L108.272727,1.04545455 C108.272727,0.468363636 108.741091,0 109.318182,0 L115.590909,0 C116.168,0 116.636364,0.468363636 116.636364,1.04545455 C116.636364,1.62254545 116.168,2.09090909 115.590909,2.09090909 L109.318182,2.09090909 C108.741091,2.09090909 108.272727,1.62254545 108.272727,1.04545455 L108.272727,1.04545455 Z" id="focus_plus_round-[#895]" fill="#23213C"></path>
                </g>
            </g>
        </g>
    </g>
</svg>