<?xml version="1.0" encoding="UTF-8"?>
<svg width="25px" height="24px" viewBox="0 0 25 24" version="1.1" xmlns="http://www.w3.org/2000/svg" xmlns:xlink="http://www.w3.org/1999/xlink">
    <!-- Generator: Sketch 40.3 (33839) - http://www.bohemiancoding.com/sketch -->
    <title>heart-shape-love</title>
    <desc>Created with Sketch.</desc>
    <defs></defs>
    <g id="Page-1" stroke="none" stroke-width="1" fill="none" fill-rule="evenodd">
        <g id="Artboard" transform="translate(-168.000000, -1173.000000)" fill="#0A1A2A">
            <g id="heart-shape-love" transform="translate(168.000000, 1173.000000)">
                <g id="Capa_1">
                    <path d="M18.0046794,0.0210477491 C18.9592721,0.0210477491 19.8564125,0.204045019 20.6961005,0.570039558 C21.5357886,0.936034096 22.2738302,1.44039242 22.9102253,2.08311454 C23.5466205,2.72583666 24.0504333,3.47567913 24.4217938,4.33264195 C24.7928943,5.18960477 24.9786395,6.10012777 24.9786395,7.06421095 C24.9786395,8.11756109 24.8681542,9.06825422 24.6471837,9.91629035 C24.4262132,10.7643265 24.1389948,11.5364857 23.7853986,12.232768 C23.4318458,12.9290503 23.0429376,13.5583386 22.6186742,14.1207642 C22.1944107,14.683146 21.7789861,15.2141969 21.3722704,15.7141794 L21.0276863,16.1158808 C20.7093588,16.5086116 20.2939341,16.9460197 19.7812825,17.4281051 C19.2686308,17.9101467 18.7206672,18.4009399 18.1373917,18.9009224 C17.5538995,19.4009049 16.9662478,19.8873661 16.3740468,20.360481 C15.7818458,20.8335521 15.2382582,21.2531506 14.7431542,21.6191451 C14.2481802,21.9850959 13.837305,22.2887786 13.5101386,22.5297994 C13.1831023,22.7708202 13.0019497,22.909184 12.9665511,22.9447157 C12.82513,23.0518799 12.6660312,23.1055713 12.4892548,23.1055713 C12.2948007,23.1055713 12.1357019,23.0518799 12.0119584,22.9447157 C11.9589255,22.9091402 11.7733102,22.7706889 11.4551127,22.5297994 C11.1369151,22.2887786 10.7303293,21.9852272 10.2353553,21.6191451 C9.74038128,21.2532819 9.19679376,20.8336396 8.60459272,20.360481 C8.01239168,19.8873223 7.42461005,19.4008612 6.84124783,18.9009224 C6.25788562,18.4009837 5.70987868,17.9100154 5.19722704,17.4281051 C4.68457539,16.9458885 4.26915078,16.5084804 3.95095321,16.1158808 L3.60623917,15.7141794 C3.19965338,15.2141969 2.78422877,14.6831023 2.35996534,14.1207642 C1.93570191,13.5582511 1.54679376,12.9290503 1.1932409,12.232768 C0.839688042,11.5364857 0.552426343,10.7643265 0.331455806,9.91629035 C0.110485269,9.06825422 0,8.11756109 0,7.06421095 C0,6.10012777 0.185615251,5.18960477 0.556845754,4.33264195 C0.928076256,3.47567913 1.43188908,2.72583666 2.06828423,2.08311454 C2.70467938,1.44039242 3.44272097,0.936034096 4.28240901,0.570039558 C5.12209705,0.204045019 6.01923744,0.0210477491 6.97383016,0.0210477491 C8.08752166,0.0210477491 9.12166378,0.266531891 10.0762565,0.757500175 C11.0308492,1.24846846 11.835182,1.92243401 12.4892548,2.77939684 C13.1433276,1.92243401 13.9476603,1.24846846 14.902253,0.757500175 C15.8568458,0.266531891 16.8909879,0.0210477491 18.0046794,0.0210477491 L18.0046794,0.0210477491 Z" id="Shape"></path>
                </g>
            </g>
        </g>
    </g>
</svg>