<?xml version="1.0" encoding="UTF-8"?>
<svg width="24px" height="29px" viewBox="0 0 24 29" version="1.1" xmlns="http://www.w3.org/2000/svg" xmlns:xlink="http://www.w3.org/1999/xlink">
    <!-- Generator: Sketch 40.3 (33839) - http://www.bohemiancoding.com/sketch -->
    <title>reload-arrow</title>
    <desc>Created with Sketch.</desc>
    <defs></defs>
    <g id="Page-1" stroke="none" stroke-width="1" fill="none" fill-rule="evenodd">
        <g id="Artboard" transform="translate(-169.000000, -1060.000000)" fill="#0A1A2A">
            <g id="reload-arrow" transform="translate(169.000000, 1060.000000)">
                <g id="Capa_1">
                    <path d="M17.3952405,6.83848289 L10.5555656,0 L10.5555656,4.61429087 C4.63477186,5.350577 0.0322927757,10.4023375 0.0322927757,16.5341721 C0.0322927757,22.6683907 4.6157538,27.7166293 10.5555656,28.4540532 L10.5555656,25.4201578 C6.28506274,24.6981217 3.03655038,20.9990817 3.03655038,16.5341721 C3.03655038,12.0692624 6.28506274,8.37260646 10.5555656,7.65176236 L10.5555656,13.5287224 L17.3952405,6.83848289 L17.3952405,6.83848289 Z M23.9787947,15.0320703 C23.725058,12.9406797 22.8975285,10.9299125 21.542424,9.18355608 L19.4071996,11.3187804 C20.2228631,12.4462643 20.7303365,13.7231293 20.9448992,15.0308241 L23.9787947,15.0308241 L23.9787947,15.0320703 L23.9787947,15.0320703 Z M13.5622072,25.4023859 L13.5622072,28.4398574 C15.6512139,28.1861207 17.6797529,27.3728413 19.4249173,26.0212586 L17.2588631,23.8552044 C16.1290494,24.666154 14.8687643,25.1913451 13.5622072,25.4023859 L13.5622072,25.4023859 Z M19.4071996,21.7673897 L21.542424,23.8860342 C22.8975285,22.1431996 23.7251122,20.1301027 23.9787947,18.03752 L20.9448992,18.03752 C20.7302823,19.3440228 20.2228631,20.6232719 19.4071996,21.7673897 L19.4071996,21.7673897 Z" id="Shape"></path>
                </g>
            </g>
        </g>
    </g>
</svg>